<?xml version="1.0" encoding="UTF-8" standalone="no"?>
<!-- Created with Inkscape (http://www.inkscape.org/) -->

<svg
   width="128"
   height="128"
   viewBox="0 0 33.866666 33.866666"
   version="1.1"
   id="svg1"
   inkscape:version="1.3.2 (091e20ef0f, 2023-11-25)"
   sodipodi:docname="LCCP Logo Gradient less sticks.svg"
   xml:space="preserve"
   xmlns:inkscape="http://www.inkscape.org/namespaces/inkscape"
   xmlns:sodipodi="http://sodipodi.sourceforge.net/DTD/sodipodi-0.dtd"
   xmlns:xlink="http://www.w3.org/1999/xlink"
   xmlns="http://www.w3.org/2000/svg"
   xmlns:svg="http://www.w3.org/2000/svg"><sodipodi:namedview
     id="namedview1"
     pagecolor="#242424"
     bordercolor="#000000"
     borderopacity="0.25"
     inkscape:showpageshadow="2"
     inkscape:pageopacity="0.0"
     inkscape:pagecheckerboard="false"
     inkscape:deskcolor="#d1d1d1"
     inkscape:document-units="px"
     inkscape:zoom="256"
     inkscape:cx="105.99023"
     inkscape:cy="15.177734"
     inkscape:window-width="1680"
     inkscape:window-height="1013"
     inkscape:window-x="0"
     inkscape:window-y="0"
     inkscape:window-maximized="1"
     inkscape:current-layer="g2" /><defs
     id="defs1"><linearGradient
       id="linearGradient9"
       inkscape:collect="always"><stop
         style="stop-color:#de5881;stop-opacity:1;"
         offset="0.03617349"
         id="stop9" /><stop
         style="stop-color:#a54392;stop-opacity:1;"
         offset="0.35699692"
         id="stop11" /><stop
         style="stop-color:#481279;stop-opacity:1;"
         offset="0.83751577"
         id="stop10" /></linearGradient><linearGradient
       id="swatch6"
       inkscape:swatch="solid"><stop
         style="stop-color:#ffffff;stop-opacity:1;"
         offset="0"
         id="stop6" /></linearGradient><inkscape:perspective
       sodipodi:type="inkscape:persp3d"
       inkscape:vp_x="27.788585 : 30.580524 : 1"
       inkscape:vp_y="0 : 1000 : 0"
       inkscape:vp_z="33.866666 : 16.933333 : 1"
       inkscape:persp3d-origin="16.933333 : 11.288889 : 1"
       id="perspective1" /><linearGradient
       inkscape:collect="always"
       xlink:href="#linearGradient9"
       id="linearGradient10"
       x1="4.2142501"
       y1="30.158625"
       x2="31.120029"
       y2="24.728205"
       gradientUnits="userSpaceOnUse"
       spreadMethod="pad"
       gradientTransform="translate(0,0.00647497)" /></defs><g
     inkscape:label="Ebene 1"
     inkscape:groupmode="layer"
     id="layer1"><g
       id="g2"
       inkscape:label="shadow"
       transform="translate(-61.909759,-132.39103)"><path
         style="fill:#000000;fill-opacity:0;stroke:#bcdeff;stroke-width:0.397111;stroke-linecap:round;stroke-linejoin:miter;stroke-miterlimit:4;stroke-dasharray:none;stroke-opacity:1;paint-order:normal"
         d="M 68.345719,157.77589 V 136.47846"
         id="path35-8"
         sodipodi:nodetypes="cc" /><rect
         style="mix-blend-mode:normal;fill:none;fill-opacity:1;fill-rule:nonzero;stroke:#bcdeff;stroke-width:0.397039;stroke-linecap:butt;stroke-linejoin:miter;stroke-miterlimit:4;stroke-dasharray:none;stroke-opacity:1;paint-order:normal"
         id="rect6-7"
         width="26.09108"
         height="4.9017873"
         x="65.94532"
         y="157.76027"
         inkscape:label="rect6"
         ry="1.099875" /><path
         style="fill:#000000;fill-opacity:0;stroke:#bcdeff;stroke-width:0.396875;stroke-linecap:round;stroke-linejoin:miter;stroke-miterlimit:4;stroke-dasharray:none;stroke-opacity:1;paint-order:normal"
         d="M 72.684655,157.75036 V 136.47822"
         id="path35-0-0-9"
         sodipodi:nodetypes="cc" /><path
         style="fill:#000000;fill-opacity:0;stroke:#bcdeff;stroke-width:0.396875;stroke-linecap:round;stroke-linejoin:miter;stroke-miterlimit:4;stroke-dasharray:none;stroke-opacity:1;paint-order:normal"
         d="M 77.023578,157.75036 V 136.47822"
         id="path35-0-0-1-2-2"
         sodipodi:nodetypes="cc" /><path
         style="fill:#000000;fill-opacity:0;stroke:#bcdeff;stroke-width:0.396875;stroke-linecap:round;stroke-linejoin:miter;stroke-miterlimit:4;stroke-dasharray:none;stroke-opacity:1;paint-order:normal"
         d="M 81.362545,157.75036 V 136.47822"
         id="path35-0-0-1-2-7-2-0"
         sodipodi:nodetypes="cc" /><path
         style="fill:#000000;fill-opacity:0;stroke:#bcdeff;stroke-width:0.396875;stroke-linecap:round;stroke-linejoin:miter;stroke-miterlimit:4;stroke-dasharray:none;stroke-opacity:1;paint-order:normal"
         d="M 85.701513,157.75036 V 136.47822"
         id="path35-0-0-1-2-7-2-3-2"
         sodipodi:nodetypes="cc" /><path
         style="fill:#000000;fill-opacity:0;stroke:#bcdeff;stroke-width:0.398552;stroke-linecap:round;stroke-linejoin:miter;stroke-miterlimit:4;stroke-dasharray:none;stroke-opacity:1;paint-order:normal"
         d="M 90.040487,157.74868 V 136.29639"
         id="path35-9-3"
         sodipodi:nodetypes="cc" /><path
         style="fill:#ffffff;fill-opacity:1;stroke:#bcdeff;stroke-width:0.435887;stroke-linecap:round;stroke-dasharray:none;stroke-opacity:1"
         d="M 68.386392,140.7385 H 89.999815"
         id="path2-2-7" /><path
         style="fill:#ffffff;fill-opacity:1;stroke:#bcdeff;stroke-width:0.435887;stroke-linecap:round;stroke-dasharray:none;stroke-opacity:1"
         d="M 68.38644,136.47836 H 89.999863"
         id="path2-5" /><path
         style="fill:#ffffff;fill-opacity:1;stroke:#bcdeff;stroke-width:0.435887;stroke-linecap:round;stroke-dasharray:none;stroke-opacity:1"
         d="M 68.386392,153.5193 H 89.999815"
         id="path2-2-5-9" /><path
         style="fill:#ffffff;fill-opacity:1;stroke:#bcdeff;stroke-width:0.435887;stroke-linecap:round;stroke-dasharray:none;stroke-opacity:1"
         d="M 68.386392,144.99877 H 89.999815"
         id="path2-7-2" /><path
         style="fill:#ffffff;fill-opacity:1;stroke:#bcdeff;stroke-width:0.435887;stroke-linecap:round;stroke-dasharray:none;stroke-opacity:1"
         d="M 68.386392,149.25904 H 89.999815"
         id="path2-6-2" /><path
         style="fill:#000000;stroke:#bcdeff;stroke-width:0.39732;stroke-linecap:round;stroke-dasharray:none;stroke-opacity:1"
         d="m 88.347018,136.2959 h 1.694505"
         id="path5" /></g><rect
       style="mix-blend-mode:normal;fill:url(#linearGradient10);fill-opacity:1;fill-rule:nonzero;stroke:#ffffff;stroke-width:0.396875;stroke-linecap:butt;stroke-linejoin:miter;stroke-miterlimit:4;stroke-dasharray:none;stroke-opacity:1;paint-order:normal"
       id="rect6"
       width="26.068619"
       height="4.9019513"
       x="3.899024"
       y="25.072166"
       inkscape:label="rect6"
       ry="1.0999118" /><rect
       style="fill:#242424;fill-opacity:1;stroke:#ffffff;stroke-width:0.23098125;stroke-linecap:butt;stroke-linejoin:miter;stroke-miterlimit:4;stroke-dasharray:none;stroke-opacity:1;paint-order:normal"
       id="rect8"
       width="2.7853947"
       height="2.7853947"
       x="15.540635"
       y="26.123968"
       ry="0.6569519" /><g
       id="g8"
       transform="matrix(0.01984073,0,0,0.01952129,15.663742,26.247531)"
       inkscape:label="Gear"><g
         stroke-width="8"
         id="g29"
         inkscape:label="g29"><path
           d="m 67,122 h -6 l -2,-16 h 10 z m 0,0"
           fill="#9a9996"
           stroke="#9a9996"
           stroke-linecap="round"
           stroke-linejoin="round"
           id="path6" /><path
           d="m 61,10 h 6 l 2,16 H 59 Z m 0,0"
           fill="#9a9996"
           stroke="#9a9996"
           stroke-linecap="round"
           stroke-linejoin="round"
           id="path7" /><path
           d="m 667.00009,291.99991 h -6 l -2,-16 h 10 z m 0,0"
           fill="#9a9996"
           stroke="#9a9996"
           stroke-linecap="round"
           stroke-linejoin="round"
           transform="rotate(90,449,-149.00009)"
           id="path8" /><path
           d="m 661.00009,179.99991 h 6 l 2,16 h -10 z m 0,0"
           fill="#9a9996"
           stroke="#9a9996"
           stroke-linecap="round"
           stroke-linejoin="round"
           transform="rotate(90,449,-149.00009)"
           id="path9" /><path
           d="m 666.99905,291.99892 -5.99927,-4.2e-4 -2.00154,-15.99802 9.99991,4e-5 z m 0,0"
           fill="#9a9996"
           stroke="#9a9996"
           stroke-linecap="round"
           stroke-linejoin="round"
           transform="rotate(120.00001,413.07482,-22.205258)"
           id="path10" /><path
           d="m 661.00111,180.0008 5.99927,4.2e-4 2.00154,15.99803 -10.00329,0.002 z m 0,0"
           fill="#9a9996"
           stroke="#9a9996"
           stroke-linecap="round"
           stroke-linejoin="round"
           transform="rotate(120.00001,413.07482,-22.205258)"
           id="path11" /><path
           d="m 667.00035,291.99847 -5.99928,4.2e-4 -2.00248,-16.00035 10.0033,0.002 z m 0,0"
           fill="#9a9996"
           stroke="#9a9996"
           stroke-linecap="round"
           stroke-linejoin="round"
           transform="rotate(149.99999,386.77576,70.615186)"
           id="path12" /><path
           d="m 660.99974,180.00119 5.99928,-4.2e-4 2.00248,16.00035 -10.0033,-0.002 z m 0,0"
           fill="#9a9996"
           stroke="#9a9996"
           stroke-linecap="round"
           stroke-linejoin="round"
           transform="rotate(149.99999,386.77576,70.615186)"
           id="path13" /><path
           d="m 666.99902,291.99905 -5.99928,-4.2e-4 -2.00154,-15.99803 10.0033,-0.002 z m 0,0"
           fill="#9a9996"
           stroke="#9a9996"
           stroke-linecap="round"
           stroke-linejoin="round"
           transform="rotate(30.000012,681.22345,-968.61565)"
           id="path14" /><path
           d="m 661.00107,180.00093 5.99928,4.2e-4 2.00154,15.99802 -10.0033,0.002 z m 0,0"
           fill="#9a9996"
           stroke="#9a9996"
           stroke-linecap="round"
           stroke-linejoin="round"
           transform="rotate(30.000012,681.22345,-968.61565)"
           id="path15" /><path
           d="m 667.00038,291.99859 -5.99927,4.2e-4 -2.00248,-16.00035 10.00329,0.002 z m 0,0"
           fill="#9a9996"
           stroke="#9a9996"
           stroke-linecap="round"
           stroke-linejoin="round"
           transform="rotate(59.999988,511.22442,-368.61557)"
           id="path16" /><path
           d="m 660.99978,180.00131 5.99927,-4.1e-4 1.9991,15.99839 -9.99991,5e-5 z m 0,0"
           fill="#9a9996"
           stroke="#9a9996"
           stroke-linecap="round"
           stroke-linejoin="round"
           transform="rotate(59.999988,511.22442,-368.61557)"
           id="path17" /><path
           d="m 67,120 h -6 l -2,-16 h 10 z m 0,0"
           fill="#f6f5f4"
           stroke="#f6f5f4"
           stroke-linecap="round"
           stroke-linejoin="round"
           id="path18" /><path
           d="m 61,8 h 6 l 2,16 H 59 Z m 0,0"
           fill="#f6f5f4"
           stroke="#f6f5f4"
           stroke-linecap="round"
           stroke-linejoin="round"
           id="path19" /><path
           d="m 667.00009,291.99991 h -6 l -2,-16 h 10 z m 0,0"
           fill="#f6f5f4"
           stroke="#f6f5f4"
           stroke-linecap="round"
           stroke-linejoin="round"
           transform="rotate(90,450,-150.00009)"
           id="path20" /><path
           d="m 661.00009,179.99991 h 6 l 2,16 h -10 z m 0,0"
           fill="#f6f5f4"
           stroke="#f6f5f4"
           stroke-linecap="round"
           stroke-linejoin="round"
           transform="rotate(90,450,-150.00009)"
           id="path21" /><path
           d="m 666.99905,291.99892 -5.99927,-4.2e-4 -2.00154,-15.99802 9.99991,4e-5 z m 0,0"
           fill="#f6f5f4"
           stroke="#f6f5f4"
           stroke-linecap="round"
           stroke-linejoin="round"
           transform="rotate(120.00001,413.65217,-23.205258)"
           id="path22" /><path
           d="m 661.00111,180.0008 5.99927,4.2e-4 2.00154,15.99803 -10.00329,0.002 z m 0,0"
           fill="#f6f5f4"
           stroke="#f6f5f4"
           stroke-linecap="round"
           stroke-linejoin="round"
           transform="rotate(120.00001,413.65217,-23.205258)"
           id="path23" /><path
           d="m 667.00035,291.99847 -5.99928,4.2e-4 -2.00248,-16.00035 10.0033,0.002 z m 0,0"
           fill="#f6f5f4"
           stroke="#f6f5f4"
           stroke-linecap="round"
           stroke-linejoin="round"
           transform="rotate(149.99999,387.0437,69.615185)"
           id="path24" /><path
           d="m 660.99974,180.00119 5.99928,-4.2e-4 2.00248,16.00035 -10.0033,-0.002 z m 0,0"
           fill="#f6f5f4"
           stroke="#f6f5f4"
           stroke-linecap="round"
           stroke-linejoin="round"
           transform="rotate(149.99999,387.0437,69.615185)"
           id="path25" /><path
           d="m 666.99902,291.99905 -5.99928,-4.2e-4 -2.00154,-15.99803 10.0033,-0.002 z m 0,0"
           fill="#f6f5f4"
           stroke="#f6f5f4"
           stroke-linecap="round"
           stroke-linejoin="round"
           transform="rotate(30.000012,684.9555,-969.61565)"
           id="path26" /><path
           d="m 661.00107,180.00093 5.99928,4.2e-4 2.00154,15.99802 -10.0033,0.002 z m 0,0"
           fill="#f6f5f4"
           stroke="#f6f5f4"
           stroke-linecap="round"
           stroke-linejoin="round"
           transform="rotate(30.000012,684.9555,-969.61565)"
           id="path27" /><path
           d="m 667.00038,291.99859 -5.99927,4.2e-4 -2.00248,-16.00035 10.00329,0.002 z m 0,0"
           fill="#f6f5f4"
           stroke="#f6f5f4"
           stroke-linecap="round"
           stroke-linejoin="round"
           transform="rotate(59.999988,512.95647,-369.61557)"
           id="path28" /><path
           d="m 660.99978,180.00131 5.99927,-4.1e-4 1.9991,15.99839 -9.99991,5e-5 z m 0,0"
           fill="#f6f5f4"
           stroke="#f6f5f4"
           stroke-linecap="round"
           stroke-linejoin="round"
           transform="rotate(59.999988,512.95647,-369.61557)"
           id="path29" /></g><path
         d="m 100,238 c 0,19.88281 -16.117188,36 -36,36 -19.882812,0 -36,-16.11719 -36,-36 0,-19.88281 16.117188,-36 36,-36 19.882812,0 36,16.11719 36,36 z m 0,0"
         fill="none"
         stroke="url(#a)"
         stroke-width="24"
         transform="translate(0,-172)"
         id="path30" /><path
         d="M 102,64 C 102,84.988281 84.988281,102 64,102 43.011719,102 26,84.988281 26,64 26,43.011719 43.011719,26 64,26 c 20.988281,0 38,17.011719 38,38 z m 0,0"
         fill="none"
         stroke="#f6f5f4"
         stroke-width="20"
         id="path31" /><path
         d="m -209.5,-64 c 0,14.636719 -11.86328,26.5 -26.5,26.5 -14.63672,0 -26.5,-11.863281 -26.5,-26.5 0,-14.636719 11.86328,-26.5 26.5,-26.5 14.63672,0 26.5,11.863281 26.5,26.5 z m 0,0"
         fill="none"
         stroke="url(#b)"
         stroke-linecap="square"
         stroke-linejoin="round"
         stroke-width="5"
         transform="matrix(0,-1,-1,0,0,-172)"
         id="path32" /><path
         d="m 268,-64 c 0,17.671875 -14.32813,32 -32,32 -17.67188,0 -32,-14.328125 -32,-32 0,-17.671875 14.32812,-32 32,-32 17.67187,0 32,14.328125 32,32 z m 0,0"
         fill="none"
         stroke="url(#c)"
         stroke-linecap="square"
         stroke-linejoin="round"
         stroke-width="8"
         transform="rotate(90,86,-86)"
         id="path33" /></g><path
       style="fill:#000000;fill-opacity:0;stroke:#ffffff;stroke-width:0.397111;stroke-linecap:round;stroke-linejoin:miter;stroke-miterlimit:4;stroke-dasharray:none;stroke-opacity:1;paint-order:normal"
       d="M 6.1650561,25.081389 V 3.783961"
       id="path35"
       sodipodi:nodetypes="cc" /><path
       style="fill:#000000;fill-opacity:0;stroke:#ffffff;stroke-width:0.39687499;stroke-linecap:round;stroke-linejoin:miter;stroke-miterlimit:4;stroke-dasharray:none;stroke-opacity:1;paint-order:normal"
       d="M 10.503992,25.055856 V 3.783725"
       id="path35-0-0"
       sodipodi:nodetypes="cc" /><path
       style="fill:#000000;fill-opacity:0;stroke:#ffffff;stroke-width:0.39687499;stroke-linecap:round;stroke-linejoin:miter;stroke-miterlimit:4;stroke-dasharray:none;stroke-opacity:1;paint-order:normal"
       d="M 14.842915,25.055856 V 3.783725"
       id="path35-0-0-1-2"
       sodipodi:nodetypes="cc" /><path
       style="fill:#000000;fill-opacity:0;stroke:#ffffff;stroke-width:0.39687499;stroke-linecap:round;stroke-linejoin:miter;stroke-miterlimit:4;stroke-dasharray:none;stroke-opacity:1;paint-order:normal"
       d="M 19.181882,25.055856 V 3.783725"
       id="path35-0-0-1-2-7-2"
       sodipodi:nodetypes="cc" /><path
       style="fill:#000000;fill-opacity:0;stroke:#ffffff;stroke-width:0.39687499;stroke-linecap:round;stroke-linejoin:miter;stroke-miterlimit:4;stroke-dasharray:none;stroke-opacity:1;paint-order:normal"
       d="M 23.52085,25.055856 V 3.783725"
       id="path35-0-0-1-2-7-2-3"
       sodipodi:nodetypes="cc" /><path
       style="fill:#000000;fill-opacity:0;stroke:#ffffff;stroke-width:0.39687499;stroke-linecap:round;stroke-linejoin:miter;stroke-miterlimit:4;stroke-dasharray:none;stroke-opacity:1;paint-order:normal"
       d="M 27.859824,25.055856 V 3.783725"
       id="path35-9"
       sodipodi:nodetypes="cc" /><path
       style="fill:#ffffff;fill-opacity:0.9953149;stroke-width:0.264583"
       d="M 2.3562115,2.9041608 H 20.598504"
       id="path1" /><path
       style="fill:#ffffff;fill-opacity:1;stroke:#ffffff;stroke-width:0.435887;stroke-linecap:round;stroke-dasharray:none;stroke-opacity:1"
       d="M 6.2057768,3.783864 H 27.8192"
       id="path2" /><path
       style="fill:#ffffff;fill-opacity:1;stroke:#ffffff;stroke-width:0.435887;stroke-linecap:round;stroke-dasharray:none;stroke-opacity:1"
       d="M 6.2057288,8.0440009 H 27.819152"
       id="path2-2" /><path
       style="fill:#ffffff;fill-opacity:1;stroke:#ffffff;stroke-width:0.435887;stroke-linecap:round;stroke-dasharray:none;stroke-opacity:1"
       d="M 6.2057288,20.824804 H 27.819152"
       id="path2-2-5" /><path
       style="fill:#ffffff;fill-opacity:1;stroke:#ffffff;stroke-width:0.435887;stroke-linecap:round;stroke-dasharray:none;stroke-opacity:1"
       d="M 6.2057288,12.304269 H 27.819152"
       id="path2-7" /><path
       style="fill:#ffffff;fill-opacity:1;stroke:#ffffff;stroke-width:0.435887;stroke-linecap:round;stroke-dasharray:none;stroke-opacity:1"
       d="M 6.2057288,16.564537 H 27.819152"
       id="path2-6" /></g></svg>
